<?xml version="1.0" standalone="no"?>
<!DOCTYPE svg PUBLIC "-//W3C//DTD SVG 1.1//EN" "http://www.w3.org/Graphics/SVG/1.1/DTD/svg11.dtd" >
<svg xmlns="http://www.w3.org/2000/svg">
<metadata>
Created by FontForge 20120731 at Sun Jun 12 15:32:32 2016
 By admin
</metadata>
<defs>
<font id="iconfont" horiz-adv-x="1024" >
  <font-face 
    font-family="iconfont"
    font-weight="500"
    font-stretch="normal"
    units-per-em="1024"
    panose-1="2 0 6 3 0 0 0 0 0 0"
    ascent="896"
    descent="-128"
    x-height="792"
    bbox="0 -210 1026 851"
    underline-thickness="50"
    underline-position="-100"
    unicode-range="U+0078-E625"
  />
<missing-glyph horiz-adv-x="374" 
d="M34 0v682h272v-682h-272zM68 34h204v614h-204v-614z" />
    <glyph glyph-name=".notdef" horiz-adv-x="374" 
d="M34 0v682h272v-682h-272zM68 34h204v614h-204v-614z" />
    <glyph glyph-name=".null" horiz-adv-x="0" 
 />
    <glyph glyph-name="nonmarkingreturn" horiz-adv-x="341" 
 />
    <glyph glyph-name="x" unicode="x" horiz-adv-x="1001" 
d="M281 543q-27 -1 -53 -1h-83q-18 0 -36.5 -6t-32.5 -18.5t-23 -32t-9 -45.5v-76h912v41q0 16 -0.5 30t-0.5 18q0 13 -5 29t-17 29.5t-31.5 22.5t-49.5 9h-133v-97h-438v97zM955 310v-52q0 -23 0.5 -52t0.5 -58t-10.5 -47.5t-26 -30t-33 -16t-31.5 -4.5q-14 -1 -29.5 -0.5
t-29.5 0.5h-32l-45 128h-439l-44 -128h-29h-34q-20 0 -45 1q-25 0 -41 9.5t-25.5 23t-13.5 29.5t-4 30v167h911zM163 247q-12 0 -21 -8.5t-9 -21.5t9 -21.5t21 -8.5q13 0 22 8.5t9 21.5t-9 21.5t-22 8.5zM316 123q-8 -26 -14 -48q-5 -19 -10.5 -37t-7.5 -25t-3 -15t1 -14.5
t9.5 -10.5t21.5 -4h37h67h81h80h64h36q23 0 34 12t2 38q-5 13 -9.5 30.5t-9.5 34.5q-5 19 -11 39h-368zM336 498v228q0 11 2.5 23t10 21.5t20.5 15.5t34 6h188q31 0 51.5 -14.5t20.5 -52.5v-227h-327z" />
    <glyph glyph-name="uniE600" unicode="&#xe600;" 
d="M516 811q-104 0 -198.5 -40.5t-162.5 -109t-108.5 -163t-40.5 -198.5t40.5 -198.5t108.5 -162.5t162.5 -108.5t198.5 -40.5t198.5 40.5t162.5 108.5t108.5 162.5t40.5 198.5t-40.5 198.5t-108.5 163t-162.5 109t-198.5 40.5zM471 59q0 -16 -11.5 -27t-27.5 -11h-153
q-16 0 -27.5 11t-11.5 27v154q0 16 11.5 27t27.5 11h153q16 0 27.5 -11t11.5 -27v-154zM471 367q0 -16 -11.5 -27.5t-27.5 -11.5h-153q-16 0 -27.5 11.5t-11.5 27.5v154q0 16 11.5 27t27.5 11h153q16 0 27.5 -11t11.5 -27v-154zM779 59q0 -16 -11 -27t-27 -11h-154
q-16 0 -27.5 11t-11.5 27v154q0 16 11.5 27t27.5 11h154q16 0 27 -11t11 -27v-154zM826 434l-114 -114q-13 -13 -29 -13t-29 13l-114 114q-12 12 -12 28.5t12 28.5l114 115q13 11 29 11t29 -11l114 -115q12 -12 12 -28.5t-12 -28.5z" />
    <glyph glyph-name="uniE601" unicode="&#xe601;" 
d="M869 132v479q0 21 -14 37.5t-36 19.5q-140 23 -306 23t-306 -23q-22 -3 -36 -19.5t-14 -37.5v-480q-47 -17 -68 -39.5t-21 -63.5q0 -75 81.5 -91.5t363.5 -16.5t363.5 16.5t81.5 91.5q0 41 -21 63.5t-68 40.5zM750 157h-474v405q140 15 237 15t237 -15v-405zM399 480
q-5 -5 -5 -12q9 -86 59 -184q4 -8 13 -8t13 9l18 44q60 -48 73 -51q14 -5 24 5q11 12 6 25q-5 12 -51 72l44 19q9 4 9 13t-8 13q-95 48 -184 59q-6 0 -11 -4z" />
    <glyph glyph-name="uniE602" unicode="&#xe602;" 
d="M846 434q-37 64 -94.5 119t-112.5 88.5t-106 57t-81 33.5t-31 10q1 -5 4 -13t7.5 -34t4.5 -52t-7 -62.5t-23 -70t-48.5 -70.5t-78.5 -68q-110 -72 -147 -160.5t7 -190.5q65 -141 280 -164l-3 1q-29 16 -54 43.5t-39.5 68.5t-13 85.5t31.5 97.5t89 101q-6 -21 -9.5 -50.5
t-0.5 -49.5q8 -55 36.5 -73.5t60 -4t54.5 50.5q34 53 27 182q-1 19 -6.5 58t-7.5 41q6 -4 15 -10.5t31.5 -27.5t40 -44t33.5 -58.5t20 -72.5q5 -49 -2.5 -96.5t-28 -93t-59.5 -84.5t-94 -64q69 6 131 32.5t105.5 64.5t73 82t41.5 88q20 78 7 159.5t-53 150.5z" />
    <glyph glyph-name="uniE603" unicode="&#xe603;" 
d="M286 -10q0 -14 -10 -24.5t-24 -10.5h-50q-14 0 -24 10.5t-10 24.5v199q0 24 29 43q9 6 32 15t37 13q7 1 11 -4t6 -15t2.5 -17t0.5 -17v-217zM457 -16q0 -14 -10 -24.5t-24 -10.5h-50q-14 0 -24 10.5t-10 24.5v299q0 9 6.5 17.5t13.5 12.5l7 4q30 17 49 17q14 0 28 -12.5
t14 -25.5v-312zM627 -16q0 -14 -10 -24.5t-24 -10.5h-50q-14 0 -24 10.5t-10 24.5v297q0 13 12.5 27t24.5 21l12 7q5 3 12 7.5t21.5 11.5t20.5 7q15 -1 15 -33v-345zM798 -16q0 -14 -10 -24.5t-24 -10.5h-50q-14 0 -24 10.5t-10 24.5v404q0 9 7.5 17t14.5 13l7 4
q24 16 45 19q15 -1 29.5 -19t14.5 -26v-412zM889 645l-162 -17q-12 -1 -16.5 -9t1.5 -19l19 -31q-196 -113 -213 -113q-9 0 -25 6.5t-27 12.5l-12 7q-2 1 -4 1q-15 9 -30 1l-296 -155q-12 -6 -16.5 -20t1.5 -26.5t19.5 -17t25.5 1.5l282 147l63 -29q1 -1 3 -1q16 -11 34 -1
l229 128l16 -28q6 -10 15 -10t16 10l90 141q7 10 3 16t-16 5z" />
    <glyph glyph-name="uniE604" unicode="&#xe604;" 
d="M917 -152l-226 194h-2q58 0 93.5 23t35.5 74v419q0 40 -13.5 72t-44.5 61t-90 45t-142 16q-291 0 -291 -194v-419q0 -51 35.5 -74t93.5 -23l-226 -194h711v1l1 -1h65zM722 177q-5 -13 -21 -20.5t-30 -2.5t-14 23v61q0 11 16 26.5t32 25.5l17 10q13 0 22.5 -9t9.5 -22
q1 -1 -32 -92zM664 9h-271l38 33h195zM527.5 720q13.5 0 23 -9.5t9.5 -23t-9.5 -23t-23 -9.5t-23 9.5t-9.5 23t9.5 23t23 9.5zM302 558q0 27 19 46t45 19h323q27 0 46 -19t19 -46v-64q0 -27 -19 -46t-46 -19h-161h-162q-26 0 -45 19t-19 46v64zM334 171l-32 97
q0 13 9.5 22.5t22.5 9.5q7 -4 18 -11.5t29 -24.5t18 -29v-64h-65zM366 -14v-9h323v10l50 -42h-421zM242 -120l38 32h497l37 -32h-572z" />
    <glyph glyph-name="uniE605" unicode="&#xe605;" 
d="M475 416q41 11 81 -5.5t62 -54.5l1 -2l106 60l236 134q-6 12 -9 17q-55 93 -163.5 120t-206.5 -28v0v0l-135 -77q-21 -12 -28 -34.5t5 -42.5zM106 373l76 -131q12 -20 35 -26.5t43 5.5l117 67q-2 64 48 104l-72 123l-132 227q-13 -5 -17 -8q-96 -55 -124.5 -160.5
t26.5 -200.5zM911 225v0l-76 130q-12 21 -35 27t-43 -6l-122 -69q7 -63 -39 -107l68 -116l133 -226q12 5 17 8q96 54 124.5 159.5t-27.5 199.5zM558 175q-45 -20 -92 -4.5t-72 57.5q-3 6 -6 13l-89 -50l-236 -134q6 -12 9 -17q55 -93 163.5 -120t206.5 29l135 77
q21 11 28 34t-5 43zM475 416q41 11 81 -5.5t62 -54.5l1 -2l106 60l236 134q-6 12 -9 17q-55 93 -163.5 120t-206.5 -28v0v0l-135 -77q-21 -12 -28 -34.5t5 -42.5zM106 373l76 -131q12 -20 35 -26.5t43 5.5l117 67q-2 64 48 104l-72 123l-132 227q-13 -5 -17 -8
q-96 -55 -124.5 -160.5t26.5 -200.5zM911 225v0l-76 130q-12 21 -35 27t-43 -6l-122 -69q7 -63 -39 -107l68 -116l133 -226q12 5 17 8q96 54 124.5 159.5t-27.5 199.5zM558 175q-45 -20 -92 -4.5t-72 57.5q-3 6 -6 13l-89 -50l-236 -134q6 -12 9 -17q55 -93 163.5 -120
t206.5 29l135 77q21 11 28 34t-5 43z" />
    <glyph glyph-name="uniE606" unicode="&#xe606;" 
d="M768 52l-137 137q47 63 47 148q0 104 -74 178t-178 74t-178 -74.5t-74 -177.5t74 -177.5t178 -74.5q101 0 174 70l135 -136q6 -6 16.5 -6t16.5 6.5t6 16t-6 16.5zM426 132q-84 0 -144.5 60t-60.5 144.5t60.5 145t144.5 60.5t144.5 -60.5t60.5 -145t-60.5 -144.5
t-144.5 -60z" />
    <glyph glyph-name="uniE607" unicode="&#xe607;" 
d="M930 715l-3 19l-18 3q-28 5 -69 5q-102 0 -181 -37q-76 -35 -132 -161q-8 -19 -16 -39q-12 38 -29 70q-34 60 -87 96q-105 70 -227 70q-41 0 -67 -7l-17 -5l-2 -18q-5 -49 6 -110q9 -55 30 -99q27 -57 71 -94q63 -54 131 -78q55 -19 110 -19q29 0 57 5v-67h-247v-304
q0 -35 25 -60t60 -25h389q35 0 60 25t25 60v304h-260v142q51 -9 96 -9q148 0 226 88q24 27 40 62.5t22 64t7.5 58.5t1 41.5t-1.5 18.5z" />
    <glyph glyph-name="uniE608" unicode="&#xe608;" 
d="M119 -41q-1 3 -1.5 9t2.5 25.5t9.5 41.5t24 57t43 71.5t69.5 85t100 98.5v91l-142 247q19 16 124 51v17h53v-17q8 -12 22 -29t42.5 -46.5t40.5 -30.5q18 -3 58.5 40t54.5 65v18h52v-17q87 -29 123 -50q-103 -187 -141 -248v-93q5 -1 12 -4t30 -15t45 -28.5t52 -48
t56 -69.5t53 -95.5t46 -125.5q-12 -14 -34 -27.5t-38 -19.5l-16 -5h-133q-6 0 -16 -1.5t-44.5 -14.5t-70.5 -37h-124q-3 2 -8 5t-22.5 12t-36 16.5t-46.5 15t-56 11.5t-62.5 2.5t-67.5 -9.5l-19 12q-18 16 -34 40z" />
    <glyph glyph-name="uniE609" unicode="&#xe609;" 
d="M787 333q23 0 32 19l64 192q2 4 2.5 7t0 6.5t-1.5 5.5t-3.5 6.5t-3.5 6.5q-13 13 -26 13h-531l-51 115q-13 13 -32 13h-64q-14 0 -23 -8t-9 -18q0 -11 9 -21.5t23 -10.5h45l51 -102v-186v-128q0 -14 8.5 -23t23.5 -9h486q15 0 23.5 9t8.5 23.5t-8.5 23t-23.5 8.5h-454v64
h454v-6zM762 397h-429v128h473zM365 115zM301 115.5q0 26.5 18.5 45t45 18.5t45.5 -18.5t19 -45t-19 -45.5t-45.5 -19t-45 19t-18.5 45.5zM723 115zM659 115.5q0 26.5 19 45t45.5 18.5t45 -18.5t18.5 -45t-18.5 -45.5t-45 -19t-45.5 19t-19 45.5z" />
    <glyph glyph-name="uniE60A" unicode="&#xe60a;" 
d="M484 188q13 -14 31 -14t30 14l187 213q9 11 -2 20.5t-21 -1.5l-186 -213q-8 -9 -17 0l-193 213q-10 11 -21 1.5t-1 -20.5z" />
    <glyph glyph-name="uniE60B" unicode="&#xe60b;" 
d="M538 412q-12 13 -30 13t-31 -14l-186 -213q-10 -11 1.5 -20.5t20.5 1.5l186 213q9 9 17 0l194 -213q9 -11 20 -1.5t1 20.5z" />
    <glyph glyph-name="uniE60C" unicode="&#xe60c;" horiz-adv-x="1025" 
d="M512 731q-92 0 -169.5 -45t-123 -123t-45.5 -170t45.5 -169.5t123 -123t169.5 -45.5t170 45.5t123 123t45 169.5t-45 170t-123 123t-170 45zM540 664q30 16 61.5 -3t51 -56t19.5 -73.5t-20 -75t-52 -57t-60 -0.5q-6 4 -8 6t-3 8t0 12.5t1.5 23t0.5 35.5q0 22 -8.5 52.5
t-14.5 51t0 41.5t32 35zM271 275q-30 22 -29.5 56.5t23 70.5t54.5 54t75 20t75 -16t31 -52q-1 -7 -2 -10t-5.5 -6.5t-10.5 -6t-21 -10.5t-31 -17q-14 -8 -28.5 -21.5t-25 -26t-23.5 -24t-24.5 -17.5t-26.5 -5t-31 11zM742 244q-1 -35 -33 -53t-74 -16t-73 21
q-24 13 -43.5 38.5t-29.5 52.5t-4.5 52t28.5 37q6 3 9 4t8.5 -1.5t10.5 -6.5t19.5 -13t30.5 -18q19 -11 50 -19t51.5 -12.5t35.5 -21t14 -44.5zM604 -67q-9 0 -15.5 7t-5.5 16v7q0 30 -20.5 52t-50 22t-50.5 -22t-21 -52q0 -3 1 -7q0 -9 -6 -16t-16 -7h-88q-8 0 -14.5 -6
t-6.5 -15v-22q0 -9 6.5 -15t14.5 -6h360q9 0 15 6t6 15v22q0 9 -6 15t-15 6h-88z" />
    <glyph glyph-name="uniE60D" unicode="&#xe60d;" horiz-adv-x="1025" 
d="M1017.5 291.5q-6.5 7.5 -20 21.5t-52 47.5t-79.5 62.5q-81 58 -160 91q-101 42 -194 42t-194 -42q-79 -33 -160 -91q-91 -65 -151 -131q-7 -8 -7 -17.5t6.5 -17t20 -21.5t52 -48t79.5 -62q81 -58 160 -91q101 -42 194 -42t194 42q79 33 160 91q91 65 151 131q7 8 7 17.5
t-6.5 17zM644 482q73 -61 73 -156q0 -85 -60 -145t-145 -60t-145 60t-60 145q0 95 73 156q69 23 132 23t132 -23zM835 167q-172 -123 -323 -123t-323 123q-69 48 -128 107q59 59 128 108q47 34 94 59q-27 -54 -27 -115q0 -106 75 -181t181 -75t181 75t75 181q0 61 -27 115
q47 -25 94 -59q69 -49 128 -108q-59 -58 -128 -107z" />
    <glyph glyph-name="uniE60E" unicode="&#xe60e;" 
d="M319 316q145 55 380 4q9 32 23.5 57t30 39.5t32.5 24.5t31.5 13.5t26.5 5t19 1.5t7 -1q-6 48 -21.5 84.5t-36.5 56t-45.5 32t-48 15.5t-42.5 3.5t-30 -1.5l-12 -2q-38 31 -77.5 42.5t-69 6t-53 -15.5t-35.5 -20l-13 -11q-159 18 -215 -110q-19 -41 -20 -80
q103 7 154 -101q15 -33 15 -43zM959 330q0 39 -27 66t-65 27q-52 0 -80 -44l-13 -18l-50 -111q-72 30 -142.5 40.5t-120 4t-89 -17t-58.5 -21.5l-20 -10l-41 99q-8 23 -28 42q-28 36 -73 36q-39 0 -66 -27t-27 -66q0 -47 38 -75q15 -13 35 -25l1 -1q54 -133 75 -175
q17 -33 76 -47l-28 -49q-8 -13 -4 -28t17.5 -22.5t28.5 -3.5t22 17l48 83h291l47 -83q8 -13 23 -17t28 3.5t17 22.5t-3 28l-27 47q24 5 43 19.5t25.5 25.5t6.5 13l62 166q38 11 57 42q21 26 21 59zM959 330z" />
    <glyph glyph-name="uniE60F" unicode="&#xe60f;" 
d="M422.5 94q-112.5 0 -192 80t-79.5 192t79.5 192t192 80t192 -80t79.5 -192t-79.5 -192t-192 -80zM423 596q-95 0 -163 -67.5t-68 -162.5t68 -162.5t163 -67.5t162.5 67.5t67.5 162.5t-67.5 162.5t-162.5 67.5zM598 163l234 -209q1 1 5.5 0t11 1t13 5.5t10 13t2.5 22.5
l-242 212z" />
    <glyph glyph-name="uniE610" unicode="&#xe610;" 
d="M755 689q0 20 -14 34t-34 14v0h-388h-2q-20 0 -34 -14t-14 -34v-1v-777v0q0 -20 14 -34t34 -14h390v0q20 0 34 14t14 34v0v778v0zM439 689h146v-25h-146v25zM512 -113q-20 0 -34.5 14t-14.5 34.5t14.5 34.5t34.5 14t34.5 -14t14.5 -34.5t-14.5 -34.5t-34.5 -14zM706 8
h-388v608h388v-608z" />
    <glyph glyph-name="uniE611" unicode="&#xe611;" 
d="M896 450.5q0 80.5 -51.5 149t-140 108t-193.5 39.5t-194 -39.5t-140.5 -108t-51.5 -149t51.5 -149t140.5 -108.5t194 -40t193.5 40t140 108.5t51.5 149zM511 252q-122 0 -208.5 58t-86.5 140t86.5 140t208.5 58t208.5 -58t86.5 -140t-86.5 -140t-208.5 -58zM511 153
q-119 0 -219.5 -19.5t-159 -54t-58.5 -75t58.5 -74.5t159 -54t219.5 -20t219.5 20t159 54t58.5 74.5t-58.5 75t-159 54t-219.5 19.5zM511 -84q-105 0 -194 15.5t-140.5 43t-51.5 59.5q0 31 46 57q-115 -113 304 -116h36q195 0 298 34q96 31 41 82q46 -26 46 -57
q0 -32 -51.5 -59.5t-140 -43t-193.5 -15.5z" />
    <glyph glyph-name="uniE612" unicode="&#xe612;" 
d="M257 -146h510v4q0 2 -1.5 8t-4.5 10.5t-8.5 8.5t-13.5 4l-198 59v195q34 0 63 6.5t50 17.5t38.5 25.5t28.5 30.5t19.5 32t12.5 30.5t7 26t4 17.5v7l-57 371h-394l-58 -371q0 -4 1.5 -11t8 -27t15.5 -38.5t27.5 -40.5t41.5 -38t59 -27t79 -11l-1 -195l-188 -51
q-7 0 -24 -14t-17 -29zM314 426l26 238h342l30 -237z" />
    <glyph glyph-name="uniE613" unicode="&#xe613;" 
d="M699 635q-19 0 -36.5 -3t-38.5 -11.5t-30 -12.5t-33.5 -17.5t-26.5 -14.5v-608q38 17 94 28.5t105 11.5q101 0 192 -42h5q11 0 19 7q11 9 11 23v524q0 31 -44 58.5t-103.5 42t-113.5 14.5zM63 520v-524q0 -14 10.5 -23t24.5 -7q93 42 192 42q88 0 194 -40v608
q-111 59 -194 59q-53 0 -105 -14.5t-87 -41.5t-35 -59z" />
    <glyph glyph-name="uniE614" unicode="&#xe614;" 
d="M635.5 218q-3.5 0 -6.5 2l-117 117l-117 -117q-6 -6 -12 0t0 13l123 123q6 6 12 0l123 -123q6 -7 0 -13q-2 -2 -5.5 -2z" />
    <glyph glyph-name="uniE615" unicode="&#xe615;" 
d="M388.5 358q3.5 0 6.5 -2l117 -117l117 117q6 6 12 0t0 -13l-123 -123q-6 -6 -12 0l-123 123q-6 7 0 13q2 2 5.5 2z" />
    <glyph glyph-name="uniE616" unicode="&#xe616;" 
d="M720 392l-12 11q-8 9 -17 0l-136 -136q-6 -6 -12 0l-136 136q-9 8 -17 0l-11 -11q-9 -9 0 -17l153 -154q7 -7 17 -7t17 7l154 154q8 8 0 17z" />
    <glyph glyph-name="uniE617" unicode="&#xe617;" 
d="M762 366q2 -15 2 -28q0 -107 -75.5 -183t-182.5 -76q-97 0 -169.5 63.5t-86.5 157.5l-58 304h-66v57h113l56 -291h243v295q22 4 44 4q119 0 202.5 -83.5t84.5 -201.5zM312 120q33 0 57 -24t24 -57t-24 -57t-57 -24t-57 24t-24 57t24 57t57 24zM699.5 120q33.5 0 57 -24
t23.5 -57t-23.5 -57t-57 -24t-57 24t-23.5 57t23.5 57t57 24z" />
    <glyph glyph-name="uniE618" unicode="&#xe618;" 
d="M511 484l229 -229q9 -9 18 0t0 18l-238 238q-9 9 -18 0l-238 -238q-9 -9 0 -18t18 0zM511 484z" />
    <glyph glyph-name="uniE619" unicode="&#xe619;" 
d="M891 727h-759q-31 0 -50 -23t-19 -57v-57h897v57q0 34 -19 57t-50 23zM63 119q0 -12 3 -25q25 220 239 220v103l172 -138l-172 -172v103q-6 2 -15 3t-36 -2.5t-53 -16t-60.5 -45.5t-62.5 -83q20 -28 54 -28h759q31 0 50 23t19 58v367h-897v-367z" />
    <glyph glyph-name="uniE61A" unicode="&#xe61a;" 
d="M64 831h90v-804h804v-90h-894v894zM243 474h180v-358h-180v358zM511 831h179v-715h-179v715zM779 705h179v-589h-179v589z" />
    <glyph glyph-name="uniE61B" unicode="&#xe61b;" 
d="M656 768h-288q-20 0 -34 -14t-14 -34v-672q0 -20 14 -34t34 -14h288q20 0 34 14t14 34v672q0 20 -14 34t-34 14zM480 696q0 8 8 8h48q8 0 8 -8t-8 -8h-48q-8 0 -8 8zM456 704q8 0 8 -8t-8 -8t-8 8t8 8zM512 32q-13 0 -22.5 9.5t-9.5 22.5t9.5 22.5t22.5 9.5t22.5 -9.5
t9.5 -22.5t-9.5 -22.5t-22.5 -9.5zM672 128h-320v512h320v-512z" />
    <glyph glyph-name="uniE61C" unicode="&#xe61c;" 
d="M639 653q13 16 1 33q-5 8 -13.5 18.5t-36 35t-58 43.5t-79.5 34t-100.5 15t-100 -15.5t-79 -34.5t-57 -44t-34.5 -35.5t-13 -18.5q-12 -17 2 -33l196 -231q1 -1 3 -2l1 -1l-46 -418q-5 -20 9 -39q19 -24 67 -24h126q28 0 48.5 14.5t20.5 41.5q0 28 -46 427l1 1h1z
M299 469l-25 102q-3 11 3 21t17.5 12.5t21.5 -3.5t12 -17l28 -116zM316 315l6 56h77l6 -56h-89zM436 573l-20 -105h-57l21 115q3 11 12.5 17.5t20.5 4.5t18 -11.5t5 -20.5zM921 471h-11v300q0 61 -42 61q-14 0 -27.5 -8t-37.5 -27q-27 -22 -42 -31q-30 -20 -44.5 -46
t-16.5 -47v-202h-18q-16 0 -27.5 -11.5t-11.5 -27.5v-457q0 -16 11.5 -27.5t27.5 -11.5h239q16 0 27.5 11.5t11.5 27.5v457q0 16 -11.5 27.5t-27.5 11.5zM870 82q0 -12 -8 -20t-19.5 -8t-20 8t-8.5 20v253q0 12 8.5 20t20 8t19.5 -8t8 -20v-253z" />
    <glyph glyph-name="uniE61D" unicode="&#xe61d;" 
d="M563 727q-37 0 -76 -5.5t-60 -11.5l-20 -6q-2 2 -5.5 5t-14 11t-22 15t-29 14t-35.5 10.5t-40.5 2.5t-44.5 -8q13 -14 15 -31.5t2 -41.5t9 -45q-36 -33 -63 -68q-18 -24 -20.5 -79t-14.5 -71q-11 -16 -25 -19.5t-26.5 -4t-19.5 -9.5q-5 -6 -6 -31.5t4.5 -57t16.5 -46.5
q17 -15 35.5 -16.5t37 -5t38.5 -24.5q33 -44 80 -77q3 -3 -1.5 -12t-9 -23t2.5 -39q6 -13 48.5 -16t59.5 6q7 6 6 16.5t3 9.5q9 -3 17 -6q6 -5 3 -17t1.5 -24.5t21.5 -12.5q13 -2 70 0q7 2 10 10t4 14.5t2 6.5q26 -2 53 -2q17 0 34.5 2.5t27.5 5t30.5 9t29.5 9.5q9 1 10 -4
t-2.5 -12.5t-3.5 -14.5t7 -9l49 -2q48 -1 54 10q13 12 12 56t10 47q73 47 100.5 103.5t27.5 145.5q0 71 -29 134t-80 109t-125 73t-159 27zM267 480q-11 0 -19 8t-8 19.5t8 19.5t19 8t19.5 -8t8.5 -19.5t-8.5 -19.5t-19.5 -8zM736 533q-40 16 -85 23t-69 6l-24 -1
q-12 0 -20 8t-8 19.5t8 19.5t20 8q43 2 88 -5t68 -15l22 -8q16 -4 21.5 -10t5.5 -17.5t-7.5 -19.5t-19.5 -8z" />
    <glyph glyph-name="uniE61E" unicode="&#xe61e;" 
d="M931 778h-838q-25 0 -43 -17.5t-18 -43.5v-122v-425v-122q0 -25 17.5 -43t43.5 -18h838q25 0 43 17.5t18 43.5v122v364v183q0 24 -17.5 42.5t-43.5 18.5zM954 538v-317v-7v-150q0 -12 -8.5 -20.5t-20.5 -8.5h-394h-41h-260v71h-38v-71h-86q-14 0 -23 5.5t-9 17.5v166v330
v160q0 12 8 20t20 8h90v-60h38v57h250h64h381q12 0 20.5 -8.5t8.5 -20.5v-172zM752 426h-128l96 169q0 2 1.5 5t1.5 5q0 9 -6.5 15.5t-15.5 6.5q-13 0 -19 -13l-93 -176q-51 90 -99 176q-5 13 -20 13q-9 0 -15.5 -6.5t-6.5 -15.5q0 -7 3 -10l96 -169h-131q-10 0 -16 -6.5
t-6 -16t6 -16t16 -6.5h144v-55h-128q-10 0 -16 -6t-6 -16t6 -16t16 -6h128v-122q0 -10 6.5 -16t16 -6t16 6t6.5 16v122h128q9 0 15.5 6t6.5 16t-6.5 16t-15.5 6h-128v55h144q9 0 15.5 6.5t6.5 15.5q3 10 -3 16.5t-16 6.5zM192 614h38v-64h-38v64zM192 486h38v-64h-38v64z
M192 358h38v-64h-38v64zM192 230h38v-64h-38v64z" />
    <glyph glyph-name="uniE61F" unicode="&#xe61f;" 
d="M512 384zM5 384h1014h-1014zM775 431l-28 131q-8 36 -39.5 61.5t-67.5 25.5h-219q-37 0 -68.5 -25.5t-38.5 -61.5l-28 -131q-24 -10 -38.5 -31t-16.5 -46l-7 -83q-2 -27 12 -49.5t38 -32.5q6 -22 24 -36t41 -14q21 0 38 12t24 32h258q7 -20 24 -32t39 -12q23 0 40.5 14
t23.5 36q24 10 38 32.5t12 49.5l-6 83q-2 26 -17 46.5t-38 30.5zM765 221q-14 -3 -14 -17q-1 -12 -9.5 -20t-20.5 -8q-11 0 -19 8t-9 19q-1 7 -6.5 12t-12.5 5h-288q-7 0 -12.5 -5t-5.5 -12q-1 -11 -9.5 -19t-19.5 -8q-12 0 -20.5 8t-8.5 20q-1 14 -15 17q-16 4 -25.5 17
t-7.5 30l6 84q1 16 12.5 29.5t27.5 18.5q12 3 13 15q0 1 1 4v1l28 134q5 23 26 40t45 17h219q23 0 44 -17t26 -40l29 -134v-1v-4q1 -12 13 -15q17 -5 28 -18.5t12 -29.5l7 -84q1 -17 -8.5 -30t-25.5 -17zM654 307q0 -17 12.5 -29.5t30 -12.5t30 12.5t12.5 30t-12.5 30
t-30 12.5t-30 -12.5t-12.5 -30.5zM386 414h288q11 0 17 7t4 17v1v1l-23 98q-2 12 -12 20t-22 8h-216q-12 0 -22 -8t-12 -20l-23 -98v-2q-2 -10 4 -17t17 -7zM424 529h212l18 -78h-248zM321 307q0 -17 12.5 -29.5t30 -12.5t30 12.5t12.5 30t-12.5 30t-30 12.5t-30 -12.5
t-12.5 -30.5z" />
    <glyph glyph-name="uniE620" unicode="&#xe620;" 
d="M827 767q0 29 -26 56.5t-61 27.5h-424q-40 0 -64.5 -28t-24.5 -57v-733q0 -30 27.5 -56t58.5 -26h428q23 0 40 9t25.5 20.5t13.5 25.5t6 21t1 9q1 568 0 731zM528 -16q-16 0 -27 11t-11 26.5t11 26.5t26.5 11t26.5 -11t11 -26.5t-11 -26.5t-26 -11zM764 78h-473v677h473
v-677zM689 577l-32 31l-126 -130l-133 137l-32 -31l109 -114h-92v-33h119v-63h-119v-32h119v-124h51v124h119v32h-119v63h119v33h-86z" />
    <glyph glyph-name="uniE621" unicode="&#xe621;" 
d="M647 832h-273v-117h273v117zM802 793h-117v-116h-349v116h-117q-32 0 -54.5 -23t-22.5 -55v-700q0 -33 22.5 -55.5t54.5 -22.5h583q33 0 55.5 22.5t22.5 55.5v700q0 32 -23 55t-55 23zM711 97q-133 4 -198 51q-72 -47 -210 -51v44q178 22 166 97v22h84v-22
q-6 -37 34 -61.5t125 -35.5v-44h-1zM673 324h1v-140h-76v91h-181v-91h-76v140h259q-81 15 -105 107h-62v44q-6 -8 -9 -13q-2 -6 -4 -8v-117h-75v63q-16 -7 -43 -13v43q50 21 71 84h76q-4 -11 -5 -14q-3 -8 -9 -20h50q-2 4 -2 18q-1 8 -1 17h76q0 -10 2 -17q0 -14 1 -18h38
v29h67v-29h45v-50h-139q19 -61 64 -59q14 -1 21 5.5t7 21.5h56q1 -63 -47 -74z" />
    <glyph glyph-name="uniE622" unicode="&#xe622;" horiz-adv-x="1039" 
d="M76 4q-32 0 -54 25q-21 24 -21 55v100l11 9q29 21 45 55.5t16 73.5q0 82 -60 130l-10 8v99q0 33 21 56q22 25 54 25h870q32 0 54 -25q21 -23 21 -56v-474q0 -33 -23 -57t-54 -24h-870zM299 59h648h2q7 1 13 9t6 16v475q0 11 -5.5 18.5t-14.5 7.5h-649v-526zM78 585
q-9 0 -14.5 -7.5t-5.5 -18.5v-73l4 -5q27 -26 44 -60q22 -46 22 -99q0 -97 -67 -160l-5 -4v-74q0 -17 14 -23l3 -2h177v526h-172zM634 133v110h-95v38h95v83h-95v37h61l-50 106h41l50 -106h22l50 106h41l-50 -106h60v-37h-89v-83h89v-38h-89v-110h-41z" />
    <glyph glyph-name="uniE623" unicode="&#xe623;" 
d="M896 680h-769q-16 0 -27.5 -11.5t-11.5 -27.5v-460q0 -16 11.5 -27.5t27.5 -11.5h769q16 0 28 11.5t12 27.5v460q0 16 -12 27.5t-28 11.5zM899 231q0 -8 -6 -14t-14 -6h-735q-8 0 -14 6t-6 14v398q0 8 6 14t14 6h735q8 0 14 -6t6 -14v-398zM731 63h-137l-12 36q0 4 -8 4
h-125q-8 0 -8 -4l-12 -36h-137q-3 0 -9.5 -7t-12.5 -14l-5 -7q0 -5 3.5 -8.5t7.5 -3.5h471q4 0 7.5 3.5t3.5 8.5q1 0 -5 7t-12.5 14t-9.5 7z" />
    <glyph glyph-name="uniE624" unicode="&#xe624;" 
d="M513 528l-49 28l-85 -144h-7l-103 140l-45 -33l78 -107h-69v-56h111v-56h-111v-56h111v-56h56v56h112v56h-112v56h112v56h-68zM513 528zM847 691h-670q-46 0 -79 -32.5t-33 -78.5v-392q0 -46 33 -78.5t79 -32.5h670q46 0 79 32.5t33 78.5v29v56l-56 4q-33 12 -54 41
t-21 65t21 64.5t54 40.5l56 4v56v32q0 46 -33 78.5t-79 32.5zM177 133q-23 0 -39.5 16t-16.5 39v392q0 23 16.5 39t39.5 16h447v-502h-447zM903 546q-57 -13 -94 -58.5t-37 -105t37 -105t94 -58.5v-31q0 -23 -16.5 -39t-39.5 -16h-167v502h167q23 0 39.5 -16t16.5 -39v-34z
M903 546z" />
    <glyph glyph-name="uniE625" unicode="&#xe625;" 
d="M536 58q6 -54 45.5 -90t92.5 -36h153q58 0 98.5 41t40.5 99v153q0 58 -40 98.5t-96 41.5l-294 1v-308zM536 719q6 53 45.5 89.5t92.5 36.5h153q58 0 98.5 -41.5t40.5 -99.5v-153q0 -57 -40 -98t-96 -42h-294v308zM482 58q-6 -54 -45 -90t-93 -36h-153q-57 0 -97.5 41
t-40.5 99v153q0 58 39.5 98.5t96.5 41.5l294 1zM482 719q-6 53 -45 89.5t-93 36.5h-153q-57 0 -97.5 -41.5t-40.5 -99.5v-153q0 -57 39.5 -98t96.5 -42h294z" />
  </font>
</defs>
</svg>
